<?xml version="1.0" standalone="no"?>
<!DOCTYPE svg PUBLIC "-//W3C//DTD SVG 20010904//EN"
 "http://www.w3.org/TR/2001/REC-SVG-20010904/DTD/svg10.dtd">
<svg version="1.0" xmlns="http://www.w3.org/2000/svg"
 width="91.000000pt" height="83.000000pt" viewBox="0 0 91.000000 83.000000"
 preserveAspectRatio="xMidYMid meet">

<g transform="translate(0.000000,83.000000) scale(0.100000,-0.100000)"
fill="#000000" stroke="none">
<path id="iop-logo-path" d="M340 563 c0 -246 -2 -251 -74 -276 -22 -8 -41 -18 -43 -24 -2 -6 17
-19 42 -28 63 -24 68 -39 38 -98 -13 -27 -22 -51 -20 -54 3 -2 27 5 53 16 26
12 55 19 65 16 10 -4 25 -27 34 -55 9 -28 20 -50 25 -50 5 0 16 20 26 45 23
61 43 71 93 45 59 -29 63 -26 42 31 -11 28 -17 57 -14 66 3 8 29 25 57 38 l51
23 -46 21 c-68 31 -79 53 -79 164 0 52 -3 114 -6 138 -6 47 -11 50 -215 182
l-29 19 0 -219z m144 -135 c4 -9 25 -28 47 -42 53 -35 71 -67 72 -124 1 -55
-26 -103 -71 -126 -15 -8 -36 -23 -46 -35 -20 -22 -36 -27 -36 -11 0 6 6 10
14 10 22 0 28 17 21 50 -8 38 -26 38 -43 1 -15 -33 -31 -32 -70 3 -64 57 -68
143 -11 202 18 19 40 36 49 39 27 9 40 51 40 130 0 114 14 124 21 15 3 -52 9
-103 13 -112z m-176 -178 c-2 -6 -8 -6 -18 0 -13 9 -13 11 0 20 15 10 25 0 18
-20z m324 -2 c-9 -9 -12 -7 -12 12 0 19 3 21 12 12 9 -9 9 -15 0 -24z m-273
-102 c9 -11 7 -15 -12 -18 -20 -4 -23 -1 -19 14 5 22 15 23 31 4z m234 -5 c3
-14 0 -17 -14 -14 -15 4 -17 8 -8 19 15 18 16 18 22 -5z m-115 -13 c-6 -18
-28 -21 -28 -4 0 9 7 16 16 16 9 0 14 -5 12 -12z"/>
<path id="iop-logo-path-2" d="M450 379 c0 -6 -9 -8 -20 -4 -13 4 -22 1 -26 -9 -3 -9 -12 -16 -20
-16 -8 0 -14 -6 -14 -14 0 -8 -7 -17 -16 -20 -10 -4 -14 -12 -10 -22 4 -9 2
-22 -4 -29 -8 -9 -8 -15 0 -20 6 -4 8 -15 5 -26 -4 -13 -2 -19 9 -19 9 0 25
-9 36 -20 11 -11 25 -20 31 -20 6 0 -3 13 -20 29 -80 75 5 209 102 160 65 -34
76 -102 23 -155 -19 -19 -28 -34 -22 -34 7 0 21 9 31 20 10 11 24 20 32 20 10
0 12 6 8 20 -4 11 -2 20 4 20 6 0 11 7 11 15 0 8 -5 15 -11 15 -6 0 -8 8 -4
19 3 12 0 21 -10 24 -8 4 -12 13 -9 22 4 10 0 15 -15 15 -12 0 -21 6 -21 16 0
11 -6 13 -19 9 -11 -3 -22 -1 -26 5 -8 13 -25 13 -25 -1z"/>
<path id="iop-logo-path-3" d="M413 325 c-51 -36 -26 -145 33 -145 2 0 4 18 4 40 0 33 -3 40 -20 40
-13 0 -20 7 -20 20 0 14 7 20 21 20 15 0 19 5 15 15 -4 10 1 15 14 15 11 0 20
-7 20 -15 0 -8 9 -15 20 -15 12 0 20 -7 20 -16 0 -9 -9 -18 -20 -21 -16 -4
-20 -14 -20 -44 0 -45 8 -48 38 -16 67 71 -25 178 -105 122z"/>
</g>
</svg>

